<svg version="1.2" xmlns="http://www.w3.org/2000/svg" viewBox="0 0 1322 1269" width="1322" height="1269"><style>.a{fill:#ffb578}.b{fill:#ffdfb9}.c{fill:#677e76}.d{fill:#b6cace}.e{fill:#e57a6f}.f{fill:#4b5b55}.g{fill:#1a1a1a}.h{fill:#ffa962}.i{fill:#fff}</style><path class="a" d="m388 906.2l15.5-58-57.9 15.5z"/><path class="b" d="m523.5 770.7l15.5-57.9-58 15.5z"/><path class="c" d="m658.9 635.3l15.5-57.9-57.9 15.5z"/><path class="c" d="m773.8 520.4l-58 15.6 15.5-58z"/><path class="a" d="m909.2 385l-57.9 15.5 15.5-57.9z"/><path class="d" d="m714.5 417.9l13.6-50.7-50.7 13.6z"/><path class="e" d="m849.9 282.5l13.6-50.7-50.7 13.6z"/><path class="d" d="m827.3 305.2l-50.7 13.5 13.5-50.7z"/><path class="a" d="m1038.9 343.9l19.4-72.4-72.4 19.4z"/><path class="c" d="m1117.1 422.1l19.4-72.4-72.5 19.3z"/><path class="c" d="m1102.3 436.9l-72.4 19.4 19.3-72.5z"/><path class="c" d="m1195.2 500.2l19.5-72.4-72.5 19.4z"/><path class="c" d="m1180.4 515l-72.4 19.5 19.4-72.5z"/><path class="c" d="m903.5 479.3l19.4-72.4-72.5 19.4z"/><path class="c" d="m1024.1 358.7l-72.4 19.4 19.4-72.5z"/><path class="a" d="m768 614.8l19.4-72.5-72.4 19.4z"/><path class="c" d="m888.7 494.1l-72.5 19.4 19.4-72.4z"/><path class="c" d="m981.7 557.5l19.4-72.4-72.5 19.4z"/><path class="f" d="m966.9 572.3l-72.5 19.4 19.4-72.4z"/><path class="c" d="m632.6 750.2l19.4-72.4-72.5 19.4z"/><path class="c" d="m753.2 629.6l-72.4 19.4 19.4-72.5z"/><path class="d" d="m960 255.8l15.5-57.9-57.9 15.5z"/><path class="b" d="m824.5 391.2l15.5-58-58 15.5z"/><path class="b" d="m935.9 279.7l-57.9 15.5 15.5-57.9z"/><path class="d" d="m689 526.6l15.6-57.9-58 15.5z"/><path class="a" d="m800.5 415.1l-58 15.6 15.5-58z"/><path class="b" d="m665 550.6l-57.9 15.5 15.5-58z"/><path class="c" d="m497.1 885.6l19.5-72.4-72.5 19.4z"/><path class="a" d="m617.8 765l-72.4 19.4 19.3-72.4z"/><path class="a" d="m361.7 1021.1l19.4-72.4-72.4 19.3z"/><path class="c" d="m482.4 900.4l-72.5 19.5 19.4-72.5z"/><path class="c" d="m846.3 693l19.4-72.4-72.5 19.4z"/><path class="c" d="m710.8 828.4l19.4-72.4-72.4 19.4z"/><path class="c" d="m831.5 707.8l-72.5 19.4 19.4-72.4z"/><path class="c" d="m575.4 963.9l19.4-72.4-72.5 19.3z"/><path class="f" d="m696 843.2l-72.4 19.5 19.4-72.5z"/><path class="g" d="m439.9 1099.3l19.5-72.4-72.5 19.4z"/><path class="c" d="m560.6 978.7l-72.4 19.4 19.3-72.5z"/><path class="c" d="m1059.8 635.6l19.4-72.4-72.5 19.4z"/><path class="c" d="m1045 650.4l-72.5 19.4 19.4-72.4z"/><path class="c" d="m924.4 771.1l19.4-72.4-72.5 19.4z"/><path class="c" d="m788.9 906.6l19.4-72.5-72.4 19.4z"/><path class="f" d="m909.6 785.9l-72.5 19.4 19.4-72.4z"/><path class="c" d="m1002.5 849.3l19.5-72.4-72.5 19.3z"/><path class="c" d="m987.7 864.1l-72.4 19.4 19.4-72.5z"/><path class="c" d="m653.5 1042l19.4-72.4-72.5 19.3z"/><path class="f" d="m774.1 921.4l-72.4 19.4 19.4-72.5z"/><path class="c" d="m1138 713.8l19.4-72.4-72.5 19.4z"/><path class="c" d="m1123.2 728.6l-72.5 19.4 19.4-72.4z"/><path class="c" d="m867.1 984.8l19.4-72.5-72.4 19.4z"/><path class="c" d="m852.3 999.6l-72.4 19.4 19.4-72.5z"/><path class="c" d="m973.9 956.1l19.4-72.4-72.4 19.4z"/><path class="c" d="m959.1 970.9l-72.4 19.4 19.4-72.4z"/><path class="g" d="m638.7 1056.8l-72.4 19.4 19.3-72.5z"/><path class="c" d="m731.6 1120.2l19.5-72.5-72.5 19.4z"/><path class="g" d="m716.9 1134.9l-72.5 19.5 19.4-72.5z"/><path class="a" d="m553.6 662.1l15.6-58-58 15.5z"/><path class="a" d="m418.2 797.5l15.5-57.9-57.9 15.5z"/><path class="d" d="m529.7 686.1l-58 15.5 15.5-58z"/><path class="a" d="m282.8 933l15.5-58-58 15.5z"/><path class="d" d="m394.2 821.5l-57.9 15.5 15.5-57.9z"/><path class="c" d="m929.8 364.4l15.5-57.9-58 15.5z"/><path class="a" d="m1010.4 450.9l19.4-72.5-72.4 19.4z"/><path class="c" d="m995.6 465.7l-72.4 19.4 19.4-72.5z"/><path class="c" d="m794.3 499.9l15.6-58-58 15.5z"/><path class="a" d="m875 586.3l19.4-72.4-72.5 19.4z"/><path class="a" d="m232 1062.2l-57.9 15.5 15.5-57.9z"/><path class="d" d="m37.3 1095.1l13.6-50.7-50.7 13.6z"/><path class="d" d="m150.1 982.4l-50.7 13.5 13.5-50.7z"/><path class="c" d="m226.3 1156.5l19.4-72.4-72.5 19.4z"/><path class="a" d="m211.5 1171.3l-72.5 19.4 19.4-72.4z"/><path class="c" d="m304.5 1234.7l19.4-72.4-72.5 19.4z"/><path class="c" d="m289.7 1249.5l-72.5 19.4 19.4-72.4z"/><path class="a" d="m147.3 1068.3l15.5-57.9-58 15.5z"/><path class="a" d="m123.3 1092.3l-58 15.6 15.5-58z"/><path class="c" d="m318.4 1142.9l-72.4 19.4 19.4-72.5z"/><path class="c" d="m117.1 1177.1l15.6-58-58 15.5z"/><path class="c" d="m197.8 1263.5l19.4-72.4-72.5 19.3z"/><path class="f" d="m860.2 601.1l-72.4 19.4 19.3-72.4z"/><path class="c" d="m739.6 721.7l19.4-72.4-72.5 19.4z"/><path class="e" d="m582.1 550.4l13.5-50.7-50.7 13.5z"/><path class="c" d="m638.3 655.9l-57.9 15.5 15.5-58z"/><path class="a" d="m724.8 736.5l-72.5 19.4 19.4-72.4z"/><path class="d" d="m553.4 579l-50.7 13.6 13.6-50.7z"/><path class="c" d="m604.1 857.2l19.4-72.4-72.4 19.3z"/><path class="c" d="m502.9 791.3l-58 15.5 15.5-57.9z"/><path class="a" d="m589.3 872l-72.4 19.4 19.4-72.5z"/><path class="d" d="m418 714.4l-50.7 13.6 13.6-50.7z"/><path class="g" d="m468.7 992.6l19.4-72.4-72.5 19.4z"/><path class="e" d="m311.1 821.3l13.6-50.7-50.7 13.6z"/><path class="b" d="m367.4 926.8l-57.9 15.5 15.5-58z"/><path class="c" d="m453.9 1007.4l-72.4 19.4 19.3-72.4z"/><path class="c" d="m1088.4 528.8l19.4-72.4-72.4 19.4z"/><path class="c" d="m1073.6 543.6l-72.4 19.5 19.4-72.5z"/><path class="c" d="m1166.6 607l19.4-72.4-72.4 19.4z"/><path class="c" d="m1151.8 621.8l-72.4 19.4 19.4-72.4z"/><path class="c" d="m953 664.3l19.4-72.4-72.5 19.3z"/><path class="f" d="m938.2 679.1l-72.5 19.4 19.4-72.5z"/><path class="f" d="m817.5 799.7l19.4-72.4-72.4 19.4z"/><path class="c" d="m802.7 814.5l-72.4 19.4 19.4-72.4z"/><path class="c" d="m1031.2 742.5l19.4-72.4-72.5 19.3z"/><path class="c" d="m1016.4 757.3l-72.5 19.4 19.4-72.5z"/><path class="c" d="m895.7 877.9l19.4-72.4-72.4 19.4z"/><path class="f" d="m880.9 892.7l-72.4 19.4 19.4-72.4z"/><path class="c" d="m682.1 935.2l19.4-72.5-72.5 19.4z"/><path class="c" d="m667.3 950l-72.4 19.4 19.3-72.5z"/><path class="c" d="m760.3 1013.4l19.4-72.5-72.5 19.4z"/><path class="c" d="m745.5 1028.2l-72.4 19.4 19.3-72.5z"/><path class="g" d="m546.7 1070.6l19.4-72.4-72.5 19.3z"/><path class="g" d="m531.9 1085.4l-72.5 19.4 19.4-72.5z"/><path class="c" d="m1044.6 249.5l-58 15.5 15.5-58z"/><path class="c" d="m1130.9 330.1l-72.4 19.4 19.4-72.5z"/><path class="c" d="m346.9 1035.8l-72.5 19.4 19.4-72.4z"/><path class="c" d="m425.1 1114.1l-72.4 19.4 19.4-72.5z"/><path class="a" d="m258.7 956.9l-57.9 15.5 15.5-58z"/><path class="c" d="m333.1 1127.9l19.4-72.5-72.5 19.4z"/><path class="a" d="m252.4 1041.4l15.5-57.9-58 15.5z"/><path class="d" d="m172.5 959.5l13.6-50.7-50.7 13.5z"/><path class="a" d="m1174.3 208.5l19.4-72.5-72.4 19.4z"/><path class="g" d="m1252.6 286.7l19.4-72.4-72.5 19.3z"/><path class="a" d="m1095.4 120.3l15.5-57.9-58 15.5z"/><path class="h" d="m1180.1 114.1l-58 15.6 15.5-58z"/><path class="c" d="m1266.5 194.8l-72.4 19.4 19.4-72.5z"/><path class="i" d="m1095.2 37.2l-50.7 13.6 13.5-50.7z"/><path class="c" d="m1159.5 223.2l-72.4 19.4 19.3-72.4z"/><path class="c" d="m1237.7 301.5l-72.4 19.4 19.4-72.5z"/><path class="a" d="m1071.3 144.2l-57.9 15.6 15.5-58z"/><path class="c" d="m1145.7 315.2l19.4-72.4-72.5 19.4z"/><path class="c" d="m1209.1 408.2l-72.5 19.4 19.4-72.4z"/><path class="c" d="m1223.8 393.4l19.4-72.4-72.4 19.3z"/><path class="c" d="m1287.2 486.4l-72.4 19.4 19.4-72.5z"/><path class="c" d="m1302 471.5l19.4-72.4-72.5 19.4z"/><path class="a" d="m1065 228.8l15.5-57.9-57.9 15.5z"/><path class="d" d="m985.1 146.9l13.6-50.7-50.7 13.5z"/><path class="e" d="m962.7 169.7l-50.7 13.6 13.5-50.7z"/></svg>