<svg width="18" height="18" viewBox="0 0 18 18" fill="none" xmlns="http://www.w3.org/2000/svg">
<path d="M14.4375 4.5H12.6937C12.5632 3.86517 12.2178 3.29476 11.7157 2.8849C11.2136 2.47505 10.5856 2.25082 9.9375 2.25L8.8125 2.25C8.16438 2.25082 7.53637 2.47505 7.0343 2.8849C6.53223 3.29476 6.1868 3.86517 6.05625 4.5H4.3125C4.16332 4.5 4.02024 4.55926 3.91475 4.66475C3.80926 4.77024 3.75 4.91332 3.75 5.0625C3.75 5.21168 3.80926 5.35476 3.91475 5.46025C4.02024 5.56574 4.16332 5.625 4.3125 5.625H4.875V12.9375C4.87589 13.6831 5.1725 14.398 5.69975 14.9253C6.227 15.4525 6.94185 15.7491 7.6875 15.75H11.0625C11.8081 15.7491 12.523 15.4525 13.0503 14.9253C13.5775 14.398 13.8741 13.6831 13.875 12.9375V5.625H14.4375C14.5867 5.625 14.7298 5.56574 14.8352 5.46025C14.9407 5.35476 15 5.21168 15 5.0625C15 4.91332 14.9407 4.77024 14.8352 4.66475C14.7298 4.55926 14.5867 4.5 14.4375 4.5ZM8.8125 3.375H9.9375C10.2864 3.37543 10.6266 3.48377 10.9115 3.68519C11.1964 3.8866 11.412 4.17121 11.5288 4.5H7.22119C7.33795 4.17121 7.55357 3.8866 7.83847 3.68519C8.12337 3.48377 8.4636 3.37543 8.8125 3.375ZM12.75 12.9375C12.75 13.3851 12.5722 13.8143 12.2557 14.1307C11.9393 14.4472 11.5101 14.625 11.0625 14.625H7.6875C7.23995 14.625 6.81072 14.4472 6.49426 14.1307C6.17779 13.8143 6 13.3851 6 12.9375V5.625H12.75V12.9375Z" fill="#ED4B9E"/>
<path d="M7.875 12C7.97446 12 8.06984 11.9407 8.14016 11.8352C8.21049 11.7298 8.25 11.5867 8.25 11.4375V8.0625C8.25 7.91332 8.21049 7.77024 8.14016 7.66475C8.06984 7.55926 7.97446 7.5 7.875 7.5C7.77554 7.5 7.68016 7.55926 7.60984 7.66475C7.53951 7.77024 7.5 7.91332 7.5 8.0625V11.4375C7.5 11.5867 7.53951 11.7298 7.60984 11.8352C7.68016 11.9407 7.77554 12 7.875 12Z" fill="#ED4B9E"/>
<path d="M10.875 12C10.9745 12 11.0698 11.9407 11.1402 11.8352C11.2105 11.7298 11.25 11.5867 11.25 11.4375V8.0625C11.25 7.91332 11.2105 7.77024 11.1402 7.66475C11.0698 7.55926 10.9745 7.5 10.875 7.5C10.7755 7.5 10.6802 7.55926 10.6098 7.66475C10.5395 7.77024 10.5 7.91332 10.5 8.0625V11.4375C10.5 11.5867 10.5395 11.7298 10.6098 11.8352C10.6802 11.9407 10.7755 12 10.875 12Z" fill="#ED4B9E"/>
</svg>
