<?xml version="1.0" encoding="UTF-8"?>
<svg id="Layer_2" data-name="Layer 2" xmlns="http://www.w3.org/2000/svg" viewBox="0 0 80.36 78.71">
  <defs>
    <style>
      .cls-1 {
        fill: #e38239;
      }
    </style>
  </defs>
  <g id="Layer_1-2" data-name="Layer 1">
    <path class="cls-1" d="M26.69,77.07C10.03,72.64-2.55,51.8,.44,34.07,3.75,14.41,20.6-.59,41.17,.02c20.59,.61,37.41,15.85,39.08,37.13,1.43,18.32-11.23,35.68-25.98,39.63,8.63-5.16,14.22-12.45,15.7-22.46,1.49-10.05-1.51-18.82-8.73-25.85-12.32-11.99-31.85-11.1-43.36,1.44-10.04,10.94-12.48,34.06,8.82,47.18Z"/>
    <path class="cls-1" d="M33.61,78.41c-8.34-2.6-14.32-11.62-13.3-20.07,1.2-9.94,8.7-17.59,17.96-18.31,10.31-.8,19.19,5.6,21.53,15.52,2.23,9.46-2.95,19.08-12.36,22.93-.46,.19-.89,.45-2.06-.12,.91-.7,1.75-1.16,2.36-1.84,3.2-3.59,3.39-8.9,.53-12.65-2.89-3.79-8.18-5.3-12.29-2.85-4.98,2.97-8.34,9.66-3.3,15.32,.46,.52,.89,1.07,1.34,1.6-.14,.16-.27,.31-.41,.47Z"/>
    <path class="cls-1" d="M34.02,77.95c.18,.19,.53,.53,.51,.56-.32,.39-.63,.16-.92-.09,.13-.16,.27-.31,.41-.47Z"/>
  </g>
</svg>