<svg version="1.2" xmlns="http://www.w3.org/2000/svg" viewBox="0 0 800 1200" width="800" height="1200"><defs><clipPath clipPathUnits="userSpaceOnUse" id="cp1"><path d="m800 1200h-800v-1200h800z"/></clipPath></defs><style>.a{fill:#636885}.b{fill:#bbbcc4}.c{fill:#2b3759}.d{fill:none;stroke:#fff;stroke-linecap:round;stroke-linejoin:round;stroke-width:2}</style><g clip-path="url(#cp1)"><path class="a" d="m232.4-65.1l-156.4 205 89.1-30.4z"/><path class="b" d="m437.6 139.9l-205.2-205-67.3 174.6z"/><path class="b" d="m165.1 230.9l-89.1-91 89.1-30.4z"/><path class="c" d="m437.6 139.9l-272.5 91v-121.4z"/><path class="c" d="m-53.9 196.1l142.6 66.9-171 37z"/><path class="b" d="m-13.4 382.9l102.1-119.9-171 37z"/><path class="a" d="m326.6 1090.9l-152.7-38.1 38.5 42.7z"/><path class="b" d="m261.4 1255.5l65.2-164.6-114.2 4.6z"/><path class="b" d="m144.4 1124.8l29.5-72 38.5 42.7z"/><path class="c" d="m261.4 1255.5l-117-130.7 68-29.3z"/><path class="a" d="m851.5 783.2l-157.1 10.7 49.8 28.7z"/><path class="b" d="m820.5 937.5l31-154.3-107.3 39.4z"/><path class="c" d="m744.2 822.6l76.3 114.9-126.1-143.6z"/><path class="b" d="m498 1148.1l-87.4 103.8 105.4-18.4z"/><path class="b" d="m22.4 40.4l-45.4 61.4 58.3-8z"/><path class="a" d="m550.2 994.6l112-110.6-24.3 173.2z"/><path class="b" d="m739.4 1021.2l-77.2-137.2-24.3 173.2z"/><path class="d" d="m677.9 50.1l98.8-20.6-57 91.4-107.5 5.7z"/><path class="d" d="m612.2 126.6l65.7-76.5-47.1-79.8z"/><path class="d" d="m630.8-29.7l47.1 79.8 98.8-20.6z"/><path class="d" d="m663.1 1093l82.1-134.3 18.1 173.9z"/><path class="d" d="m853.1 1073.2l-107.9-114.5 18.1 173.9z"/><path class="d" d="m224 1151.4l-23.3 155.7-84.4-153.2z"/><path class="d" d="m56.7 1243.6l144 63.5-84.4-153.2z"/><path class="d" d="m951.5 644.4l-131.6 86.3 58-165z"/><path class="d" d="m771.3 581l48.6 149.7 58-165z"/><path class="d" d="m-75 567.8l-48.6 149.8 45.2-35.5z"/><path class="d" d="m56.7 654.2l-131.7-86.4-3.4 114.3z"/><path class="d" d="m-78.4 682.1l135.1-27.9-180.3 63.4z"/><path class="d" d="m16.8 318.8l91.5 128.2-167.2-51.5z"/><path class="d" d="m-39.4 501.4l147.7-54.4-167.2-51.5z"/></g></svg>