<svg version="1.2" xmlns="http://www.w3.org/2000/svg" viewBox="0 0 261 706" width="261" height="706"><defs><linearGradient id="P" gradientUnits="userSpaceOnUse"/><linearGradient id="g1" x2="1" href="#P" gradientTransform="matrix(0,-280.669,197.176,0,-115.39,634.972)"><stop stop-color="#be9a71"/><stop offset="1" stop-color="#cbae8d"/></linearGradient><linearGradient id="g2" x2="1" href="#P" gradientTransform="matrix(49.097,0,0,49.099,113.628,296.793)"><stop stop-color="#f2f2f2"/><stop offset=".18" stop-color="#ccc"/><stop offset=".43" stop-color="#f2f2f2"/><stop offset=".65" stop-color="#f2f2f2"/><stop offset="1" stop-color="#ccc"/></linearGradient><linearGradient id="g3" x2="1" href="#P" gradientTransform="matrix(.581,-58.683,195.071,1.931,123.24,704.797)"><stop stop-color="#be9a71"/><stop offset="1" stop-color="#cbae8d"/></linearGradient><linearGradient id="g4" x2="1" href="#P" gradientTransform="matrix(172.329,-114.234,154.273,232.73,-21.562,95.801)"><stop stop-color="#be9a71"/><stop offset="1" stop-color="#cbae8d"/></linearGradient></defs><style>.a{opacity:.2}.b{fill:url(#g1)}.c{fill:#fff}.d{fill:url(#g2)}.e{fill:#999}.f{fill:url(#g3)}.g{fill:url(#g4)}</style><path fill-rule="evenodd" class="a" d="m249.6 358.1l-2.7 267.8c0 4.7-4.7 8.1-9.9 8l-226.3-2.2c-5.2-0.1-9.8-3.5-9.8-8.3l2.7-267.8 30.9-67.3c2.1-4.7 4.5-8.4 9.8-8.3l166.9 1.7c5.3 0 9.7 3.7 9.6 8.4zm-106.8-35.1c0.1-8.7-6.9-15.9-15.7-16-8.7-0.1-15.9 6.9-16 15.7-0.1 8.7 7 15.9 15.7 16 8.7 0.1 15.9-7 16-15.7z"/><path fill-rule="evenodd" class="b" d="m260.8 356.6l-2.6 267.8c-0.1 4.8-4.8 8.2-10 8.1l-226.2-2.2c-5.2-0.1-9.9-3.5-9.8-8.3l2.6-267.8 31-67.3c2-4.7 4.5-8.4 9.7-8.3l167 1.6c5.2 0.1 9.6 3.8 9.6 8.5zm-106.9-35.1c0.1-8.7-6.9-15.9-15.6-16-8.8-0.1-15.9 6.9-16 15.7-0.1 8.7 6.9 15.9 15.6 16 8.8 0 15.9-7 16-15.7z"/><path fill-rule="evenodd" class="c" d="m164.1 321.6c-0.1 14.3-11.8 25.9-26.2 25.7-14.3-0.1-25.8-11.9-25.7-26.2 0.1-14.4 11.9-25.9 26.2-25.7 14.4 0.1 25.9 11.9 25.7 26.2zm-10.1-0.1c0.1-8.7-6.9-15.9-15.7-16-8.7-0.1-15.9 6.9-15.9 15.7-0.1 8.7 6.9 15.9 15.6 16 8.8 0.1 15.9-7 16-15.7z"/><path fill-rule="evenodd" class="d" d="m162.7 321.6c-0.1 13.5-11.2 24.4-24.8 24.3-13.5-0.1-24.4-11.2-24.3-24.8 0.2-13.6 11.3-24.4 24.8-24.3 13.6 0.1 24.5 11.2 24.3 24.8zm-8.7-0.1c0.1-8.7-6.9-15.9-15.7-16-8.7-0.1-15.9 6.9-15.9 15.7-0.1 8.7 6.9 15.9 15.6 16 8.8 0.1 15.9-7 16-15.7z"/><path class="e" d="m124 321.2c0.1-8.5 6.8-15.3 15.1-15.6q-0.4-0.1-0.8-0.1c-8.7-0.1-15.9 6.9-15.9 15.7-0.1 8.7 6.9 15.9 15.6 16q0.4 0 0.8-0.1c-8.3-0.5-14.9-7.4-14.8-15.9z"/><path class="e" d="m140 305.5q-0.5 0-0.9 0.1c8.4 0.5 15 7.4 14.9 15.9-0.1 8.5-6.8 15.3-15.2 15.6q0.4 0.1 0.8 0.1c8.8 0.1 15.9-6.9 16-15.7 0.1-8.7-6.9-15.9-15.6-16z"/><path class="f" d="m257.5 695.9c-0.1 5.4-5 9.7-10.5 9.6l-225.3-2.2c-5.4-0.1-10.3-4.5-10.2-9.9l0.5-54.3c0.1-5.4 5-9.9 10.5-9.8l225.3 2.2c5.4 0.1 10.3 4.6 10.2 10z"/><path class="g" d="m130.1 322.6q-0.7 0-1.3-0.4c-1.2-0.7-1.5-2.3-0.8-3.4 0-0.1 5.2-10.5-11.3-44.6-14.6-30.1-57.6-176.1-27.8-240.9 7.4-15.9 18.6-25.9 33.4-29.8 20.8-5.4 36.7-2.7 47.5 8.1 35.5 35.7 4.9 151.3-13.5 220.4-5.2 19.8-9.4 35.4-10.3 43.1-3.2 26.6 0.4 34 2.1 36 0.6 0.7 1.1 0.8 1.2 0.8 1.3-0.2 2.5 0.7 2.7 2 0.3 1.3-0.6 2.6-1.9 2.9-0.5 0.1-2.8 0.4-5.1-1.8-5.3-4.8-6.6-18.5-3.9-40.5 0.9-8.1 5.1-23.8 10.4-43.8 16.9-63.5 48.3-181.9 14.7-215.6-9.4-9.4-23.7-11.7-42.6-6.7-13.3 3.5-23.5 12.6-30.1 27-15.6 33.8-9.9 89.7-2.4 130.6 8.8 48.1 23.2 91.7 30.1 106 17.8 36.7 11.8 48.2 11 49.4-0.4 0.8-1.3 1.2-2.1 1.2z"/></svg>