<?xml version="1.0" encoding="utf-8"?>
<!-- Generator: Adobe Illustrator 26.0.1, SVG Export Plug-In . SVG Version: 6.00 Build 0)  -->
<svg version="1.1" id="Layer_1" xmlns="http://www.w3.org/2000/svg" xmlns:xlink="http://www.w3.org/1999/xlink" x="0px" y="0px"
	 viewBox="0 0 469.96 83.33" style="enable-background:new 0 0 469.96 83.33;" xml:space="preserve">
<style type="text/css">
	.st0{fill:#FFFFFF;}
</style>
<g>
	<g>
		<path class="st0" d="M8.84,0h18.2v24.7h13.78v14.17H27.04v42.9H8.84v-42.9H0V24.7h8.84V0z"/>
		<path class="st0" d="M50.31,52.65c0-5.81,1.36-11.01,4.09-15.6s6.56-8.21,11.5-10.85s10.62-3.96,17.03-3.96
			c6.5,0,12.13,1.32,16.9,3.96c4.77,2.65,8.43,6.26,10.99,10.85c2.56,4.59,3.83,9.79,3.83,15.6s-1.28,11.03-3.83,15.67
			c-2.56,4.64-6.22,8.3-10.99,10.98c-4.77,2.69-10.49,4.03-17.16,4.03c-6.24,0-11.81-1.21-16.7-3.64
			c-4.9-2.43-8.73-5.94-11.51-10.53C51.7,64.57,50.31,59.07,50.31,52.65z M68.64,52.78c0,2.95,0.61,5.61,1.82,8
			c1.21,2.38,2.86,4.27,4.94,5.66s4.42,2.08,7.02,2.08c2.86,0,5.33-0.69,7.41-2.08s3.68-3.27,4.81-5.66c1.13-2.38,1.69-5.05,1.69-8
			c0-3.03-0.56-5.72-1.69-8.06s-2.73-4.2-4.81-5.59s-4.55-2.08-7.41-2.08c-2.6,0-4.94,0.69-7.02,2.08
			c-2.08,1.39-3.73,3.25-4.94,5.59C69.25,47.06,68.64,49.75,68.64,52.78z"/>
		<path class="st0" d="M145.47,24.96l1.43,10.14l-0.26-0.91c1.99-3.55,4.81-6.44,8.45-8.65s8.1-3.31,13.39-3.31
			c5.37,0,9.86,1.58,13.46,4.75c3.6,3.16,5.44,7.26,5.53,12.29v42.51h-18.2V46.02c-0.09-2.51-0.76-4.53-2.02-6.04
			c-1.26-1.52-3.36-2.27-6.3-2.27c-2.77,0-5.2,0.91-7.28,2.73s-3.68,4.29-4.81,7.41s-1.69,6.72-1.69,10.79v23.14h-18.2V24.96H145.47
			z"/>
		<path class="st0" d="M230.1,83.33c-5.29,0-10.08-1.06-14.37-3.19s-7.69-5.4-10.21-9.81c-2.51-4.42-3.77-10.05-3.77-16.9
			c0-6.41,1.3-11.96,3.9-16.64s6.02-8.3,10.27-10.85c4.25-2.56,8.75-3.83,13.52-3.83c5.63,0,9.9,0.93,12.8,2.79s5.31,3.92,7.22,6.17
			l-0.78,2.21l1.69-8.32h16.9v56.81h-18.2V69.42l1.43,3.9c-0.17,0-0.7,0.5-1.56,1.5c-0.87,1-2.14,2.17-3.83,3.51
			c-1.69,1.34-3.77,2.51-6.24,3.51C236.41,82.83,233.48,83.33,230.1,83.33z M235.3,68.51c2.17,0,4.12-0.33,5.85-0.98
			s3.25-1.6,4.55-2.86c1.3-1.25,2.43-2.84,3.38-4.74V46.02c-0.69-1.91-1.73-3.53-3.12-4.88c-1.39-1.34-3.03-2.38-4.94-3.12
			c-1.91-0.74-4.03-1.1-6.37-1.1c-2.6,0-5,0.67-7.21,2.02c-2.21,1.34-3.96,3.19-5.27,5.52c-1.3,2.34-1.95,5.03-1.95,8.06
			c0,3.03,0.69,5.76,2.08,8.19c1.38,2.43,3.23,4.33,5.52,5.72C230.12,67.82,232.61,68.51,235.3,68.51z"/>
		<path class="st0" d="M291.33,0h18.2v24.7h13.78v14.17h-13.78v42.9h-18.2v-42.9h-8.84V24.7h8.84V0z"/>
		<path class="st0" d="M332.8,52.65c0-5.81,1.36-11.01,4.09-15.6c2.73-4.59,6.56-8.21,11.5-10.85s10.62-3.96,17.03-3.96
			c6.5,0,12.13,1.32,16.9,3.96c4.77,2.65,8.43,6.26,10.99,10.85s3.83,9.79,3.83,15.6s-1.28,11.03-3.83,15.67
			c-2.56,4.64-6.22,8.3-10.99,10.98c-4.77,2.69-10.49,4.03-17.16,4.03c-6.24,0-11.81-1.21-16.7-3.64
			c-4.9-2.43-8.73-5.94-11.51-10.53C334.19,64.57,332.8,59.07,332.8,52.65z M351.13,52.78c0,2.95,0.61,5.61,1.82,8
			c1.21,2.38,2.86,4.27,4.94,5.66c2.08,1.39,4.42,2.08,7.02,2.08c2.86,0,5.33-0.69,7.41-2.08c2.08-1.39,3.68-3.27,4.81-5.66
			c1.13-2.38,1.69-5.05,1.69-8c0-3.03-0.56-5.72-1.69-8.06s-2.73-4.2-4.81-5.59c-2.08-1.39-4.55-2.08-7.41-2.08
			c-2.6,0-4.94,0.69-7.02,2.08c-2.08,1.39-3.73,3.25-4.94,5.59C351.74,47.06,351.13,49.75,351.13,52.78z"/>
		<path class="st0" d="M427.96,24.96l1.43,10.14l-0.26-0.91c1.99-3.55,4.81-6.44,8.45-8.65s8.1-3.31,13.39-3.31
			c5.37,0,9.86,1.58,13.46,4.75c3.6,3.16,5.44,7.26,5.53,12.29v42.51h-18.2V46.02c-0.09-2.51-0.76-4.53-2.02-6.04
			c-1.26-1.52-3.36-2.27-6.3-2.27c-2.77,0-5.2,0.91-7.28,2.73s-3.68,4.29-4.81,7.41s-1.69,6.72-1.69,10.79v23.14h-18.2V24.96H427.96
			z"/>
	</g>
</g>
</svg>
