<svg width="984" height="551" viewBox="0 0 984 551" fill="none" xmlns="http://www.w3.org/2000/svg">
  <path d="M550 323.7C550.42 322.93 550.76 322.12 551.13 321.33L685.42 29.47C686.52 27.09 687.63 24.72 688.71 22.33C689.09 21.51 689.47 20.79 690.57 20.8C693.04 20.8 695.52 20.8 698.34 20.8C697.72 22.3 697.34 23.41 696.82 24.48C648.94 128.867 601.063 233.25 553.19 337.63C551.28 341.79 549.31 345.94 547.47 350.13C545.85 353.83 546.09 357.43 548.77 360.57C549.936 362.035 551.498 363.135 553.271 363.738C555.044 364.341 556.953 364.421 558.77 363.97C562.77 363.16 564.77 360.39 566.33 356.97C614.11 252.99 661.873 149.03 709.62 45.09C714.18 35.17 718.62 25.22 723.32 15.34C725.9 9.86 723.81 2.15 716.61 0.660004V0H680.55C680.585 0.101609 680.598 0.209559 680.587 0.316528C680.577 0.423498 680.544 0.526984 680.49 0.619995C676.57 1.48 674.49 4.25 672.88 7.62C667.547 19.2333 662.213 30.8433 656.88 42.45C618.96 125.21 581 207.95 543 290.67C542.46 291.86 541.89 293.03 541.24 294.41C539.74 293.41 539.72 291.75 538.91 290.58C536.13 286.58 536.81 282.89 538.82 278.52C577.94 193.433 616.94 108.297 655.82 23.11C657.04 20.43 658.3 17.76 659.51 15.11C662.37 8.75 659.32 2.39 652.57 0.559998C652.537 0.369149 652.462 0.188072 652.35 0.0299988H617C617.055 0.23594 617.026 0.4551 616.92 0.639999C613.02 1.43 610.71 4.01001 609.13 7.46001C603.037 20.76 596.933 34.0533 590.82 47.34L510.47 222.34C510.1 223.13 509.72 223.91 509.22 224.93C507.6 223.21 507.22 221.01 506.12 219.26C504.06 216 504.39 213.09 506.02 209.56C535.447 145.833 564.78 82.0667 594.02 18.26C595.27 15.54 596.21 12.83 595.52 9.74001C595.134 7.74466 594.132 5.92037 592.656 4.52324C591.18 3.12611 589.304 2.22626 587.29 1.95C586.096 1.80813 584.893 1.75132 583.69 1.78C574.51 1.78 565.33 1.95001 556.16 1.71001C550.22 1.55001 546.55 4.08999 544.16 9.37C528.053 44.5967 511.883 79.8067 495.65 115C489.91 127.5 484.17 140 478.43 152.5C478.03 153.39 477.55 154.24 476.89 155.55C475.29 152.05 473.89 148.91 472.4 145.76C471.85 144.55 472.7 143.66 473.13 142.76C477.87 132.32 482.633 121.893 487.42 111.48C501.873 79.92 516.323 48.3567 530.77 16.79C532.77 12.45 532.18 8.14 529.2 4.92C528.38 3.96032 527.364 3.18719 526.221 2.65251C525.077 2.11783 523.832 1.83399 522.57 1.82001C511.75 1.82001 500.93 1.73001 490.11 1.82001C485.46 1.82001 482.45 4.57 480.57 8.66L469.77 32.17C461.99 49.13 454.2 66.0733 446.4 83C446.01 83.86 445.84 84.9 444.75 85.53L436.66 68C427.87 48.86 419.01 29.74 410.35 10.54C408.35 6.02999 405.99 2.07 401.26 0.0299988H396.67C395.84 1.11 394.45 1.29 393.41 2.03C390.02 4.47 388.32 7.66001 388.83 11.88C389.132 13.3783 389.662 14.8217 390.4 16.16C404.4 46.7333 418.4 77.2967 432.4 107.85C432.868 108.691 433.123 109.634 433.142 110.596C433.161 111.559 432.944 112.511 432.51 113.37C415.503 150.23 398.55 187.107 381.65 224C381.394 224.828 380.937 225.581 380.32 226.19C379.491 225.101 378.843 223.885 378.4 222.59C345.82 151.67 313.243 80.7433 280.67 9.81C280.164 8.60355 279.563 7.43979 278.87 6.33C275.87 1.85 270.43 0.329996 265.96 2.73C260.76 5.49 258.82 10.73 261.07 16.03C261.46 16.94 261.89 17.82 262.29 18.72L369.77 253.32C370.195 254.344 370.672 255.345 371.2 256.32C375.27 263.32 384.4 263.5 388.75 256.73C389.524 255.414 390.209 254.048 390.8 252.64L443.15 139C443.553 137.821 444.148 136.716 444.91 135.73C446.44 137.92 447.12 140.48 448.42 142.73C449.48 144.55 449.23 146.12 448.37 147.95C443.83 157.64 439.37 167.38 434.95 177.1C418.95 211.92 402.95 246.74 386.95 281.56C386.257 282.927 385.891 284.436 385.883 285.969C385.874 287.502 386.222 289.015 386.9 290.39C387.75 292.17 388.56 293.96 389.37 295.75C393.64 305.2 397.93 314.64 402.15 324.11C403.57 327.29 405.71 329.58 409.15 330.46C414.68 331.87 419.26 329.69 421.76 324.33C426.96 313.14 432.09 301.93 437.25 290.72C449.917 263.147 462.603 235.58 475.31 208.02C475.72 207.13 475.86 206.02 477.05 205.44C478.12 207.77 478.98 210.03 480.15 212.11C481.32 214.19 481.09 215.84 480.15 217.91C460.05 261.623 439.977 305.363 419.93 349.13C419.43 350.22 418.88 351.3 418.49 352.43C417.999 353.743 417.795 355.146 417.892 356.544C417.99 357.942 418.386 359.304 419.054 360.536C419.722 361.768 420.647 362.843 421.766 363.687C422.885 364.531 424.172 365.126 425.54 365.43C430.39 366.68 434.92 364.43 437.24 359.43C442.573 347.93 447.86 336.423 453.1 324.91C465.687 297.537 478.28 270.167 490.88 242.8C491.34 241.8 491.48 240.51 492.82 239.92C493.61 241.61 494.35 243.19 495.08 244.77C496.59 248.04 498 251.37 499.64 254.57C500.443 256.265 501.705 257.7 503.284 258.711C504.863 259.723 506.695 260.27 508.57 260.29C512.68 260.44 515.57 258.29 517.67 254.88C518.258 253.833 518.789 252.754 519.26 251.65L617.6 38C619.927 32.94 622.26 27.8833 624.6 22.83C625.06 21.83 625.37 20.74 626.81 20.83C629.19 20.94 631.59 20.62 634.02 21.04C634.12 22.77 633.12 24.04 632.51 25.37C601.403 93.25 570.277 161.117 539.13 228.97C531.297 246.037 523.46 263.1 515.62 280.16C514.972 281.367 514.601 282.704 514.535 284.072C514.47 285.441 514.71 286.806 515.24 288.07C520.573 299.93 525.927 311.767 531.3 323.58C533.13 327.58 536.47 329.33 540.79 329.36C542.711 329.421 544.607 328.917 546.244 327.911C547.881 326.905 549.187 325.441 550 323.7V323.7ZM457.2 108.32C461.367 99.2 465.56 90.0833 469.78 80.97C478.37 62.34 487 43.73 495.48 25.05C496.48 22.79 497.72 21.89 500.13 22.17C502.069 22.2729 504.011 22.2729 505.95 22.17L460.81 120.57C459.17 117.02 457.88 114.17 456.55 111.35C456 110.17 456.81 109.27 457.24 108.32H457.2ZM464.47 182.8C458.47 195.9 452.47 208.987 446.47 222.06C435.797 245.353 425.117 268.667 414.43 292C413.85 293.27 413.25 294.52 412.48 296.17C412.263 295.941 412.062 295.697 411.88 295.44C410.49 292.36 408.28 289.37 407.96 286.18C407.66 283.18 410.13 280.37 411.44 277.51C427.267 242.85 443.12 208.217 459 173.61C459.409 172.337 460.091 171.17 461 170.19C462.5 173.47 464 176.6 465.36 179.75C465.84 180.91 465 181.84 464.51 182.8H464.47ZM492.79 190.24C491.19 186.78 489.94 184 488.61 181.24C487.91 179.79 488.74 178.69 489.27 177.54C494.41 166.32 499.57 155.113 504.75 143.92C522.91 104.453 541.067 64.9833 559.22 25.51C559.54 24.82 559.9 24.14 560.22 23.43C560.362 23.0258 560.638 22.6819 561.001 22.4548C561.365 22.2276 561.794 22.1307 562.22 22.18C564.61 22.18 566.99 22.18 569.87 22.18L492.79 190.24Z" fill="#990D81"/>
  <path d="M157.59 452.24L130.21 526.88L121.58 549.78C121.47 550.09 104.26 550.72 104.26 550.72C104.195 550.296 104.095 549.877 103.96 549.47C95.9865 529.75 87.9998 510.033 79.9998 490.32C79.7698 489.75 79.6698 489.07 78.9198 488.9C78.7986 489.087 78.6884 489.28 78.5898 489.48L53.7798 550.72H36.7798C37.0098 549.44 36.2598 548.4 35.8598 547.3C31.3331 535.1 26.8031 522.93 22.2698 510.79C16.0898 494.123 9.90647 477.477 3.7198 460.85L3.6398 460.63L0.999804 453.6L0.549805 452.38C7.7898 452.38 15.0498 452.38 22.2898 452.2C24.1998 452.2 24.6398 453.2 25.1698 454.62C30.1298 467.667 35.1131 480.71 40.1198 493.75C41.9998 498.61 43.8698 503.47 45.9998 509C46.6098 507.62 46.9998 506.8 47.3298 506C54.2165 489.087 61.1065 472.193 67.9998 455.32C69.4598 451.76 68.6898 452.32 72.6898 452.25C77.6898 452.25 82.6898 452.25 87.7598 452.25C90.6498 452.25 90.6598 452.25 91.7598 454.97C98.3398 471.83 104.916 488.697 111.49 505.57C111.87 506.57 112.32 507.57 112.97 509.09C113.54 507.75 113.97 506.93 114.25 506.09L134.43 455.3C135.64 452.24 135.65 452.24 138.79 452.24H157.59Z" fill="#990D81"/>
  <path d="M385.77 514.72C385.77 494.527 385.77 474.33 385.77 454.13C385.77 451.23 385.77 451.21 382.93 451.2C376.93 451.2 370.93 451.35 364.93 451.12C362.08 451.01 360.49 451.87 359.03 454.42C349.86 470.42 340.5 486.31 331.18 502.22C330.61 503.22 330.25 504.36 329.02 505.05C328.37 503.94 327.8 503.05 327.28 502.05C318.28 485.93 309.34 469.83 300.47 453.66C300.13 452.821 299.525 452.116 298.747 451.653C297.968 451.191 297.059 450.997 296.16 451.1C289.61 451.26 283.06 451.1 276.51 451.17C272.31 451.17 272.7 450.67 272.7 455.05C272.7 484.857 272.7 514.663 272.7 544.47C272.7 546.54 272.75 548.62 272.78 550.69H293.78V492.24C294.84 492.46 294.99 493.15 295.28 493.68C305.52 511.94 315.753 530.203 325.98 548.47C326.219 548.952 326.426 549.45 326.6 549.96C327.55 550.53 327.94 549.87 328.35 549.18L334.86 538.18C343.527 523.513 352.21 508.877 360.91 494.27C361.371 493.113 362.156 492.113 363.17 491.39V494.05C363.17 511.73 363.17 529.397 363.17 547.05C363.17 548.25 363.23 549.45 363.26 550.65H385.56C385.851 549.484 385.929 548.274 385.79 547.08C385.783 536.32 385.777 525.533 385.77 514.72Z" fill="#990D81"/>
  <path d="M254.42 531C234.22 531 214.017 531 193.81 531C190.73 531 190.71 531 190.7 528.07C190.7 522.83 190.7 517.58 190.7 512.34C190.7 509.5 190.7 509.49 193.55 509.46H195.18C207.96 509.46 220.74 509.46 233.52 509.46C236.04 509.46 236.08 509.46 236.09 506.99C236.09 502.3 236.09 497.6 236.09 492.9C236.09 489.83 236.09 490.1 233.16 490.08C225.52 490.03 217.87 490.08 210.23 490.08C204.55 490.08 198.87 490.08 193.23 490.08C190.79 490.08 190.75 490.02 190.73 487.51C190.73 483.14 190.73 478.77 190.73 474.4C190.73 472.14 190.79 472.09 193.13 472.09C200.55 472.09 207.98 472.09 215.41 472.09C228.403 472.09 241.403 472.09 254.41 472.09C256.9 472.09 256.93 472.09 256.95 469.56C256.95 464.97 256.95 460.38 256.95 455.8C256.95 452.11 257.39 452.3 253.4 452.3C226.313 452.3 199.23 452.3 172.15 452.3C167.26 452.3 167.92 451.76 167.92 456.4C167.92 487.847 167.92 519.3 167.92 550.76H258.4C258.4 545.52 258.52 540.28 258.52 535.04C258.46 530.42 258.94 531.05 254.42 531Z" fill="#990D81"/>
  <path d="M938.11 489.85C953.23 477.15 968.343 464.44 983.45 451.72V451.07C974.45 451.07 965.54 451.23 956.59 451.13C954.208 451.042 951.882 451.861 950.08 453.42C936.367 464.6 922.603 475.713 908.79 486.76C908.01 487.38 907.42 488.52 905.97 488.18V485.53C905.97 474.93 905.97 464.333 905.97 453.74C905.97 451.25 905.92 451.21 903.42 451.2C897.52 451.2 891.623 451.2 885.73 451.2C883.21 451.2 883.21 451.2 883.15 453.71C883.15 454.36 883.15 455.02 883.15 455.71V539.93C883.15 542.55 883.22 545.18 883.15 547.79C883.09 549.46 883.63 550.09 885.37 550.07C891.49 549.98 897.6 549.99 903.72 550.07C905.35 550.07 906.23 549.67 906.02 547.88C905.978 547.214 905.978 546.546 906.02 545.88C906.02 536.807 906.02 527.74 906.02 518.68C906.02 517.68 905.76 516.49 906.85 515.68C910.53 512.953 914.197 510.203 917.85 507.43C917.985 507.296 918.15 507.196 918.332 507.137C918.513 507.079 918.706 507.064 918.894 507.095C919.082 507.125 919.26 507.199 919.414 507.311C919.568 507.423 919.693 507.57 919.78 507.74C920.18 508.26 920.6 508.74 921.02 509.27C931.627 522.183 942.227 535.1 952.82 548.02C953.28 548.674 953.898 549.201 954.617 549.551C955.336 549.9 956.132 550.062 956.93 550.02C964.58 549.91 972.23 550.02 979.87 549.95C980.55 549.95 981.4 550.37 981.87 549.49C981.443 548.483 980.81 547.576 980.01 546.83C965.89 529.323 951.76 511.817 937.62 494.31C935.67 491.9 935.19 492.3 938.11 489.85Z" fill="#990D81"/>
  <path d="M498.21 538.26C485.11 510.68 472.04 483.093 459 455.5C457.78 452.9 456.39 452 453.6 452.18C449.677 452.42 445.743 452.42 441.82 452.18C439.18 452.03 437.82 452.88 436.68 455.37C426.11 478.47 415.37 501.49 404.68 524.55C400.68 533.25 396.68 541.99 392.73 550.71H414.36C417.99 543.37 421.65 536.06 425.19 528.71C425.96 527.12 427.03 526.85 428.58 526.86C437.97 526.86 447.37 526.86 456.77 526.86C459.83 526.86 462.89 526.86 465.95 526.86C466.486 526.798 467.027 526.913 467.491 527.188C467.955 527.462 468.316 527.881 468.52 528.38C472.04 535.53 475.63 542.64 479.18 549.78C479.267 550.106 479.298 550.444 479.27 550.78H503.53C504.01 549.78 503.29 549.13 502.94 548.38C501.4 545 499.8 541.61 498.21 538.26ZM433.8 509.26L447.21 483C451.8 492.13 456.02 500.56 460.42 509.32L433.8 509.26Z" fill="#990D81"/>
  <path d="M632.64 500.3C631.58 499.59 630.27 499.2 629.47 498.15C629.55 497.97 629.57 497.86 629.64 497.8C630.07 497.46 630.5 497.13 630.94 496.8C636.5 492.8 639.78 487.46 640.24 480.6C641.24 466.41 634.24 455.89 620.55 452.53C616.285 451.568 611.921 451.122 607.55 451.2C587.883 451.2 568.217 451.2 548.55 451.2C545.67 451.2 545.63 451.2 545.63 454.03C545.63 485.057 545.63 516.087 545.63 547.12C545.63 549.97 545.63 549.97 548.5 550H549.81C568.17 550 586.527 550 604.88 550C608.812 550.024 612.742 549.817 616.65 549.38C632.38 547.57 644.14 536.88 643.32 519.19C643.249 515.402 642.236 511.691 640.371 508.393C638.507 505.095 635.849 502.313 632.64 500.3V500.3ZM568.44 473.65C568.44 471.26 568.5 471.18 570.72 471.18C582.4 471.18 594.087 471.197 605.78 471.23C607.967 471.202 610.146 471.509 612.24 472.14C615.99 473.34 617.63 475.83 617.57 480.14C617.51 484.21 615.77 486.64 612.15 487.76C609.506 488.458 606.773 488.761 604.04 488.66C599.12 488.71 594.21 488.66 589.29 488.66C583.18 488.66 577.06 488.66 570.94 488.66C568.49 488.66 568.46 488.6 568.44 486.08C568.413 481.947 568.413 477.803 568.44 473.65V473.65ZM614.89 528.14C611.02 529.93 606.83 530 602.69 530.14C598.21 530.26 593.69 530.14 589.25 530.14C583.25 530.14 577.25 530.14 571.25 530.14C568.5 530.14 568.46 530.14 568.45 527.52C568.45 521.94 568.45 516.37 568.45 510.8C568.45 509.24 568.96 508.72 570.52 508.73C582.52 508.8 594.52 508.73 606.52 508.87C609.15 508.895 611.756 509.378 614.22 510.3C618.14 511.77 620.02 514.72 620.22 518.84C620.42 522.96 618.85 526.32 614.89 528.14Z" fill="#990D81"/>
  <path d="M866.79 451.16C861.65 451.25 856.52 451.16 851.38 451.16C847.62 451.16 847.89 450.85 847.89 454.74C847.89 472.213 847.89 489.69 847.89 507.17C847.89 508.26 848.26 509.48 847.19 510.77C846.26 509.71 845.5 508.77 844.66 507.92C826.826 489.747 809.003 471.573 791.19 453.4C790.53 452.625 789.698 452.014 788.76 451.617C787.823 451.219 786.806 451.046 785.79 451.11C781.53 451.27 777.27 451.11 773.01 451.16C769.01 451.16 769.22 450.73 769.22 454.78V546.21C769.22 546.87 769.22 547.52 769.22 548.21C769.15 549.41 769.61 550.01 770.9 550C776.8 550 782.7 550 788.6 550C789.82 550 790.45 549.59 790.41 548.32C790.41 547.44 790.41 546.57 790.41 545.69C790.41 528.11 790.41 510.523 790.41 492.93C790.259 491.748 790.344 490.549 790.66 489.4C791.78 489.51 792.2 490.4 792.78 490.95C796.71 494.89 800.61 498.87 804.53 502.83C819.41 517.91 834.29 533 849.17 548.1C849.732 548.748 850.436 549.258 851.226 549.591C852.017 549.924 852.873 550.071 853.73 550.02C857.73 549.89 861.82 550.02 865.86 550.02C869.05 550.02 869.05 550.02 869.08 546.8V455.34C869.08 454.68 869.03 454.02 869.08 453.34C869.24 451.66 868.48 451.13 866.79 451.16Z" fill="#990D81"/>
  <path d="M738.91 507.5C730.39 489.56 721.883 471.62 713.39 453.68C712.54 451.87 711.56 451.06 709.48 451.14C705.01 451.3 700.48 451.32 696.06 451.14C693.87 451.05 692.8 451.77 691.88 453.77C677.546 484.877 663.17 515.963 648.75 547.03C648.36 547.88 647.61 548.67 648.06 550.03C654.52 550.03 661.06 550.03 667.57 550.03C669.18 550.03 669.57 548.94 670.06 547.89C673.33 541.35 676.67 534.89 679.83 528.25C680.124 527.452 680.679 526.778 681.406 526.337C682.132 525.895 682.987 525.713 683.83 525.82C695.73 525.91 707.63 525.93 719.53 525.82C721.81 525.82 723.01 526.46 724 528.58C727.06 535.09 730.39 541.48 733.62 547.91C734.15 548.98 734.51 550.05 736.11 550.04C743.53 549.97 750.95 550.04 758.62 550.04C758.544 548.915 758.201 547.825 757.62 546.86C751.373 533.72 745.136 520.6 738.91 507.5ZM689.28 508.5C689.53 506.3 699.28 486.77 702.28 482.5L715.35 508.5H689.28Z" fill="#990D81"/>
</svg>
